<svg width="100%" height="100%" viewBox="0 0 17 16" fill="none" xmlns="http://www.w3.org/2000/svg">
<path d="M6.49992 1.33333C4.75325 1.33333 3.33325 2.75333 3.33325 4.49999C3.33325 6.21333 4.67325 7.59999 6.41992 7.65999C6.47325 7.65333 6.52659 7.65333 6.56659 7.65999C6.57992 7.65999 6.58659 7.65999 6.59992 7.65999C6.60659 7.65999 6.60659 7.65999 6.61325 7.65999C8.31992 7.59999 9.65992 6.21333 9.66659 4.49999C9.66659 2.75333 8.24659 1.33333 6.49992 1.33333Z" fill="currentColor"/>
<path d="M9.88664 9.43333C8.02664 8.19333 4.99331 8.19333 3.11997 9.43333C2.27331 9.99999 1.80664 10.7667 1.80664 11.5867C1.80664 12.4067 2.27331 13.1667 3.11331 13.7267C4.04664 14.3533 5.27331 14.6667 6.49997 14.6667C7.72664 14.6667 8.95331 14.3533 9.88664 13.7267C10.7266 13.16 11.1933 12.4 11.1933 11.5733C11.1866 10.7533 10.7266 9.99333 9.88664 9.43333Z" fill="currentColor"/>
<path d="M13.8267 4.89333C13.9334 6.18667 13.0134 7.32 11.7401 7.47333C11.7334 7.47333 11.7334 7.47333 11.7267 7.47333H11.7067C11.6667 7.47333 11.6267 7.47333 11.5934 7.48667C10.9467 7.52 10.3534 7.31333 9.90674 6.93333C10.5934 6.32 10.9867 5.4 10.9067 4.4C10.8601 3.86 10.6734 3.36667 10.3934 2.94667C10.6467 2.82 10.9401 2.74 11.2401 2.71333C12.5467 2.6 13.7134 3.57333 13.8267 4.89333Z" fill="currentColor"/>
<path d="M15.16 11.06C15.1067 11.7067 14.6933 12.2667 14 12.6467C13.3333 13.0133 12.4933 13.1867 11.66 13.1667C12.14 12.7333 12.42 12.1933 12.4733 11.62C12.54 10.7933 12.1467 10 11.36 9.36667C10.9133 9.01333 10.3933 8.73333 9.82666 8.52667C11.3 8.1 13.1533 8.38667 14.2933 9.30667C14.9067 9.8 15.22 10.42 15.16 11.06Z" fill="currentColor"/>
</svg>
