<svg width="100%" height="100%" viewBox="0 0 17 16" fill="none" xmlns="http://www.w3.org/2000/svg">
<path d="M8.93997 1.67875L8.91997 1.72542L6.98664 6.21209H5.08664C4.63331 6.21209 4.19997 6.30542 3.80664 6.47209L4.97331 3.68542L4.99997 3.61875L5.04664 3.51209C5.05997 3.47209 5.07331 3.43209 5.09331 3.39875C5.96664 1.37875 6.95331 0.918752 8.93997 1.67875Z" stroke="currentColor" stroke-width="1.5" stroke-linecap="round" stroke-linejoin="round"/>
<path d="M12.5332 6.34542C12.2332 6.25209 11.9132 6.21209 11.5932 6.21209H6.98657L8.91991 1.72542L8.93991 1.67876C9.03991 1.71209 9.13324 1.75876 9.23324 1.79876L10.7066 2.41876C11.5266 2.75876 12.0999 3.11209 12.4466 3.53876C12.5132 3.61876 12.5666 3.69209 12.6132 3.77876C12.6732 3.87209 12.7199 3.96542 12.7466 4.06542C12.7732 4.12542 12.7932 4.18542 12.8066 4.23876C12.9866 4.79876 12.8799 5.48542 12.5332 6.34542Z" stroke="currentColor" stroke-width="1.5" stroke-linecap="round" stroke-linejoin="round"/>
<path d="M14.8477 9.46557V10.7656C14.8477 10.8989 14.8411 11.0322 14.8344 11.1656C14.7077 13.4922 13.4077 14.6656 10.9411 14.6656H5.74106C5.58106 14.6656 5.42106 14.6522 5.26773 14.6322C3.14773 14.4922 2.0144 13.3589 1.8744 11.2389C1.8544 11.0856 1.84106 10.9256 1.84106 10.7656V9.46557C1.84106 8.12557 2.6544 6.97223 3.8144 6.47223C4.2144 6.30557 4.64106 6.21223 5.0944 6.21223H11.6011C11.9277 6.21223 12.2477 6.2589 12.5411 6.34557C13.8677 6.75224 14.8477 7.99223 14.8477 9.46557Z" stroke="currentColor" stroke-width="1.5" stroke-linecap="round" stroke-linejoin="round"/>
<path d="M4.97325 3.68542L3.80659 6.47209C2.64659 6.97209 1.83325 8.12542 1.83325 9.46543V7.51209C1.83325 5.61876 3.17992 4.03876 4.97325 3.68542Z" stroke="currentColor" stroke-width="1.5" stroke-linecap="round" stroke-linejoin="round"/>
<path d="M14.8457 7.51178V9.46511C14.8457 7.99844 13.8724 6.75178 12.5391 6.35178C12.8857 5.48511 12.9857 4.80511 12.8191 4.23844C12.8057 4.17844 12.7857 4.11844 12.7591 4.06511C13.9991 4.70511 14.8457 6.01844 14.8457 7.51178Z" stroke="currentColor" stroke-width="1.5" stroke-linecap="round" stroke-linejoin="round"/>
</svg>
