<svg width="100%" height="100%" viewBox="0 0 20 21" fill="none" xmlns="http://www.w3.org/2000/svg">
<path d="M10 20.5C15.5228 20.5 20 16.0228 20 10.5C20 4.97715 15.5228 0.5 10 0.5C4.47715 0.5 0 4.97715 0 10.5C0 16.0228 4.47715 20.5 10 20.5Z" fill="#26A17B"/>
<path fill-rule="evenodd" clip-rule="evenodd" d="M11.2013 11.3644V11.3632C11.1325 11.3682 10.7781 11.3894 9.9875 11.3894C9.35625 11.3894 8.91187 11.3707 8.75562 11.3632V11.3651C6.32562 11.2582 4.51187 10.8351 4.51187 10.3288C4.51187 9.82318 6.32562 9.40006 8.75562 9.29131V10.9438C8.91437 10.9551 9.36937 10.9819 9.99812 10.9819C10.7525 10.9819 11.1306 10.9507 11.2013 10.9444V9.29256C13.6263 9.40068 15.4356 9.82381 15.4356 10.3288C15.4356 10.8351 13.6263 11.2569 11.2013 11.3644ZM11.2013 9.12068V7.64193H14.585V5.38693H5.37188V7.64193H8.75562V9.12006C6.00562 9.24631 3.9375 9.79131 3.9375 10.4438C3.9375 11.0963 6.00562 11.6407 8.75562 11.7676V16.5063H11.2013V11.7663C13.9469 11.6401 16.01 11.0957 16.01 10.4438C16.01 9.79193 13.9469 9.24756 11.2013 9.12068Z" fill="white"/>
</svg>
