<svg width="99" height="26" viewBox="0 0 99 26" fill="none" xmlns="http://www.w3.org/2000/svg">
<path d="M0.856 20C0.669334 20 0.510667 19.9347 0.38 19.804C0.249333 19.6733 0.184 19.5147 0.184 19.328V1.1C0.184 0.894666 0.249333 0.726666 0.38 0.595999C0.510667 0.465332 0.669334 0.399999 0.856 0.399999H7.688C9.57333 0.399999 11.1227 0.689332 12.336 1.268C13.568 1.84667 14.492 2.70533 15.108 3.844C15.7427 4.98267 16.0693 6.37333 16.088 8.016C16.1253 8.83733 16.144 9.56533 16.144 10.2C16.144 10.8347 16.1253 11.5533 16.088 12.356C16.0507 14.092 15.7333 15.5293 15.136 16.668C14.5387 17.788 13.6333 18.628 12.42 19.188C11.2253 19.7293 9.69467 20 7.828 20H0.856ZM4.076 16.78H7.688C8.73333 16.78 9.58267 16.6307 10.236 16.332C10.8893 16.0333 11.3653 15.5573 11.664 14.904C11.9813 14.232 12.1493 13.3547 12.168 12.272C12.1867 11.712 12.196 11.2267 12.196 10.816C12.2147 10.3867 12.2147 9.96667 12.196 9.556C12.196 9.12667 12.1867 8.64133 12.168 8.1C12.1307 6.56933 11.748 5.44 11.02 4.712C10.292 3.984 9.13467 3.62 7.548 3.62H4.076V16.78ZM25.8075 20.28C23.7355 20.28 22.0928 19.6827 20.8795 18.488C19.6662 17.2933 19.0128 15.5947 18.9195 13.392C18.9008 13.2053 18.8915 12.972 18.8915 12.692C18.8915 12.3933 18.9008 12.16 18.9195 11.992C18.9942 10.592 19.3115 9.37867 19.8715 8.352C20.4502 7.32533 21.2435 6.54133 22.2515 6C23.2595 5.44 24.4448 5.16 25.8075 5.16C27.3195 5.16 28.5888 5.47733 29.6155 6.112C30.6422 6.728 31.4168 7.596 31.9395 8.716C32.4622 9.81733 32.7235 11.096 32.7235 12.552V13.14C32.7235 13.3267 32.6582 13.4853 32.5275 13.616C32.3968 13.7467 32.2288 13.812 32.0235 13.812H22.7275C22.7275 13.812 22.7275 13.84 22.7275 13.896C22.7275 13.952 22.7275 13.9987 22.7275 14.036C22.7462 14.6893 22.8675 15.296 23.0915 15.856C23.3342 16.3973 23.6795 16.836 24.1275 17.172C24.5942 17.508 25.1448 17.676 25.7795 17.676C26.3022 17.676 26.7408 17.6013 27.0955 17.452C27.4502 17.284 27.7395 17.0973 27.9635 16.892C28.1875 16.6867 28.3462 16.5187 28.4395 16.388C28.6075 16.164 28.7382 16.0333 28.8315 15.996C28.9435 15.94 29.1022 15.912 29.3075 15.912H31.7155C31.9022 15.912 32.0515 15.968 32.1635 16.08C32.2942 16.192 32.3502 16.332 32.3315 16.5C32.3128 16.7987 32.1542 17.1627 31.8555 17.592C31.5755 18.0213 31.1648 18.4413 30.6235 18.852C30.0822 19.2627 29.4008 19.608 28.5795 19.888C27.7768 20.1493 26.8528 20.28 25.8075 20.28ZM22.7275 11.46H28.9155V11.376C28.9155 10.648 28.7942 10.0133 28.5515 9.472C28.3088 8.93067 27.9542 8.50133 27.4875 8.184C27.0208 7.86667 26.4608 7.708 25.8075 7.708C25.1542 7.708 24.5942 7.86667 24.1275 8.184C23.6608 8.50133 23.3062 8.93067 23.0635 9.472C22.8395 10.0133 22.7275 10.648 22.7275 11.376V11.46ZM34.6968 20C34.5288 20 34.3795 19.944 34.2488 19.832C34.1368 19.7013 34.0808 19.552 34.0808 19.384C34.0808 19.328 34.0902 19.2627 34.1088 19.188C34.1462 19.1133 34.2022 19.02 34.2768 18.908L39.0368 12.524L34.6128 6.532C34.5568 6.43867 34.5102 6.35467 34.4728 6.28C34.4542 6.20533 34.4448 6.13067 34.4448 6.056C34.4448 5.888 34.5008 5.748 34.6128 5.636C34.7435 5.50533 34.8928 5.44 35.0608 5.44H37.4968C37.7208 5.44 37.8888 5.496 38.0008 5.608C38.1128 5.72 38.1968 5.82267 38.2528 5.916L41.4168 10.116L44.5808 5.916C44.6555 5.82267 44.7395 5.72 44.8328 5.608C44.9448 5.496 45.1128 5.44 45.3368 5.44H47.6608C47.8288 5.44 47.9688 5.50533 48.0808 5.636C48.2115 5.748 48.2768 5.87867 48.2768 6.028C48.2768 6.12133 48.2582 6.20533 48.2208 6.28C48.2022 6.35467 48.1648 6.43867 48.1088 6.532L43.6288 12.58L48.4168 18.908C48.4915 19.02 48.5382 19.1133 48.5568 19.188C48.5942 19.2627 48.6128 19.328 48.6128 19.384C48.6128 19.552 48.5475 19.7013 48.4168 19.832C48.3048 19.944 48.1648 20 47.9968 20H45.4488C45.2435 20 45.0848 19.9533 44.9728 19.86C44.8608 19.748 44.7675 19.6453 44.6928 19.552L41.3328 15.1L37.9168 19.552C37.8422 19.6453 37.7488 19.748 37.6368 19.86C37.5435 19.9533 37.3848 20 37.1608 20H34.6968ZM52.1255 20C51.9389 20 51.7802 19.9347 51.6495 19.804C51.5189 19.6733 51.4535 19.5147 51.4535 19.328V1.1C51.4535 0.894666 51.5189 0.726666 51.6495 0.595999C51.7802 0.465332 51.9389 0.399999 52.1255 0.399999H59.6295C61.0855 0.399999 62.3549 0.633332 63.4375 1.1C64.5202 1.548 65.3602 2.23867 65.9575 3.172C66.5549 4.08667 66.8535 5.23467 66.8535 6.616C66.8535 8.016 66.5549 9.17333 65.9575 10.088C65.3602 10.984 64.5202 11.656 63.4375 12.104C62.3549 12.552 61.0855 12.776 59.6295 12.776H55.4575V19.328C55.4575 19.5147 55.3922 19.6733 55.2615 19.804C55.1495 19.9347 54.9909 20 54.7855 20H52.1255ZM55.4015 9.668H59.4895C60.5722 9.668 61.4029 9.416 61.9815 8.912C62.5602 8.38933 62.8495 7.624 62.8495 6.616C62.8495 5.68267 62.5789 4.936 62.0375 4.376C61.4962 3.79733 60.6469 3.508 59.4895 3.508H55.4015V9.668ZM73.5018 20.28C72.5311 20.28 71.6538 20.0933 70.8698 19.72C70.0858 19.328 69.4604 18.8147 68.9938 18.18C68.5458 17.5267 68.3218 16.7987 68.3218 15.996C68.3218 14.6893 68.8444 13.6533 69.8898 12.888C70.9538 12.104 72.3538 11.5813 74.0898 11.32L77.9258 10.76V10.172C77.9258 9.388 77.7298 8.78133 77.3378 8.352C76.9458 7.92267 76.2738 7.708 75.3218 7.708C74.6498 7.708 74.0991 7.848 73.6698 8.128C73.2591 8.38933 72.9511 8.744 72.7458 9.192C72.5964 9.43467 72.3818 9.556 72.1018 9.556H69.8898C69.6844 9.556 69.5258 9.5 69.4138 9.388C69.3204 9.276 69.2738 9.12667 69.2738 8.94C69.2924 8.64133 69.4138 8.27733 69.6378 7.848C69.8618 7.41867 70.2164 7.008 70.7018 6.616C71.1871 6.20533 71.8124 5.86 72.5778 5.58C73.3431 5.3 74.2671 5.16 75.3498 5.16C76.5258 5.16 77.5151 5.30933 78.3178 5.608C79.1391 5.888 79.7924 6.27067 80.2778 6.756C80.7631 7.24133 81.1178 7.81067 81.3418 8.464C81.5658 9.11733 81.6778 9.808 81.6778 10.536V19.328C81.6778 19.5147 81.6124 19.6733 81.4818 19.804C81.3511 19.9347 81.1924 20 81.0058 20H78.7378C78.5324 20 78.3644 19.9347 78.2338 19.804C78.1218 19.6733 78.0658 19.5147 78.0658 19.328V18.236C77.8231 18.5907 77.4964 18.9267 77.0858 19.244C76.6751 19.5427 76.1711 19.7947 75.5738 20C74.9951 20.1867 74.3044 20.28 73.5018 20.28ZM74.4538 17.62C75.1071 17.62 75.6951 17.48 76.2178 17.2C76.7591 16.92 77.1791 16.4907 77.4778 15.912C77.7951 15.3147 77.9538 14.568 77.9538 13.672V13.084L75.1538 13.532C74.0524 13.7 73.2311 13.9707 72.6898 14.344C72.1484 14.7173 71.8778 15.1747 71.8778 15.716C71.8778 16.1267 71.9991 16.4813 72.2418 16.78C72.5031 17.06 72.8298 17.2747 73.2218 17.424C73.6138 17.5547 74.0244 17.62 74.4538 17.62ZM87.5191 25.32C87.3697 25.32 87.2391 25.264 87.1271 25.152C87.0151 25.04 86.9591 24.9093 86.9591 24.76C86.9591 24.6853 86.9591 24.6107 86.9591 24.536C86.9777 24.48 87.0151 24.4053 87.0711 24.312L89.2551 19.132L83.8791 6.448C83.8044 6.26133 83.7671 6.13067 83.7671 6.056C83.7857 5.888 83.8511 5.748 83.9631 5.636C84.0751 5.50533 84.2151 5.44 84.3831 5.44H86.6511C86.8751 5.44 87.0431 5.496 87.1551 5.608C87.2671 5.72 87.3511 5.84133 87.4071 5.972L91.1311 15.128L94.9671 5.972C95.0231 5.82267 95.1071 5.70133 95.2191 5.608C95.3311 5.496 95.4991 5.44 95.7231 5.44H97.9631C98.1124 5.44 98.2431 5.496 98.3551 5.608C98.4857 5.72 98.5511 5.85067 98.5511 6C98.5511 6.112 98.5137 6.26133 98.4391 6.448L90.5151 24.788C90.4404 24.9373 90.3471 25.0587 90.2351 25.152C90.1231 25.264 89.9551 25.32 89.7311 25.32H87.5191Z" fill="white"/>
</svg>
